<svg width="1900" height="1080" viewBox="0 0 1900 1080" fill="none" xmlns="http://www.w3.org/2000/svg">
<path d="M29.1875 314V317.125H33.875V335.875H29.1875V339H37V314H29.1875ZM12 314V339H19.8125V335.875H15.125V317.125H19.8125V314H12Z" fill="#FFAD7D"/>
<path d="M331.188 15V18.125H335.875V36.875H331.188V40H339V15H331.188ZM314 15V40H321.812V36.875H317.125V18.125H321.812V15H314Z" fill="#FFAD7D"/>
<path d="M930.188 15V18.125H934.875V36.875H930.188V40H938V15H930.188ZM913 15V40H920.812V36.875H916.125V18.125H920.812V15H913Z" fill="#FFAD7D"/>
<path d="M1230.19 314V317.125H1234.88V335.875H1230.19V339H1238V314H1230.19ZM1213 314V339H1220.81V335.875H1216.12V317.125H1220.81V314H1213Z" fill="#FFAD7D"/>
<path d="M1529.19 15V18.125H1533.88V36.875H1529.19V40H1537V15H1529.19ZM1512 15V40H1519.81V36.875H1515.12V18.125H1519.81V15H1512Z" fill="#FFAD7D"/>
<path d="M631.188 314V317.125H635.875V335.875H631.188V339H639V314H631.188ZM614 314V339H621.812V335.875H617.125V317.125H621.812V314H614Z" fill="#FFAD7D"/>
<path d="M166.682 171C166.682 170.47 166.921 169.961 167.347 169.586C167.774 169.211 168.352 169 168.955 169C169.256 169 169.545 168.895 169.758 168.707C169.971 168.52 170.091 168.265 170.091 168C170.091 167.735 169.971 167.48 169.758 167.293C169.545 167.105 169.256 167 168.955 167C167.749 167 166.593 167.421 165.74 168.172C164.888 168.922 164.409 169.939 164.409 171V174C164.409 174.53 164.17 175.039 163.743 175.414C163.317 175.789 162.739 176 162.136 176C161.835 176 161.546 176.105 161.333 176.293C161.12 176.48 161 176.735 161 177C161 177.265 161.12 177.52 161.333 177.707C161.546 177.895 161.835 178 162.136 178C162.739 178 163.317 178.211 163.743 178.586C164.17 178.961 164.409 179.47 164.409 180V183C164.409 184.061 164.888 185.078 165.74 185.828C166.593 186.579 167.749 187 168.955 187C169.256 187 169.545 186.895 169.758 186.707C169.971 186.52 170.091 186.265 170.091 186C170.091 185.735 169.971 185.48 169.758 185.293C169.545 185.105 169.256 185 168.955 185C168.352 185 167.774 184.789 167.347 184.414C166.921 184.039 166.682 183.53 166.682 183V180C166.678 179.431 166.536 178.868 166.266 178.351C165.995 177.834 165.603 177.373 165.114 177C165.603 176.627 165.995 176.166 166.266 175.649C166.536 175.132 166.678 174.569 166.682 174V171ZM184.864 176C184.261 176 183.683 175.789 183.257 175.414C182.83 175.039 182.591 174.53 182.591 174V171C182.591 169.939 182.112 168.922 181.26 168.172C180.407 167.421 179.251 167 178.045 167C177.744 167 177.455 167.105 177.242 167.293C177.029 167.48 176.909 167.735 176.909 168C176.909 168.265 177.029 168.52 177.242 168.707C177.455 168.895 177.744 169 178.045 169C178.648 169 179.226 169.211 179.653 169.586C180.079 169.961 180.318 170.47 180.318 171V174C180.322 174.569 180.464 175.132 180.734 175.649C181.005 176.166 181.397 176.627 181.886 177C181.397 177.373 181.005 177.834 180.734 178.351C180.464 178.868 180.322 179.431 180.318 180V183C180.318 183.53 180.079 184.039 179.653 184.414C179.226 184.789 178.648 185 178.045 185C177.744 185 177.455 185.105 177.242 185.293C177.029 185.48 176.909 185.735 176.909 186C176.909 186.265 177.029 186.52 177.242 186.707C177.455 186.895 177.744 187 178.045 187C179.251 187 180.407 186.579 181.26 185.828C182.112 185.078 182.591 184.061 182.591 183V180C182.591 179.47 182.83 178.961 183.257 178.586C183.683 178.211 184.261 178 184.864 178C185.165 178 185.454 177.895 185.667 177.707C185.88 177.52 186 177.265 186 177C186 176.735 185.88 176.48 185.667 176.293C185.454 176.105 185.165 176 184.864 176Z" fill="#68FF4A"/>
<path d="M770.682 171C770.682 170.47 770.921 169.961 771.347 169.586C771.774 169.211 772.352 169 772.955 169C773.256 169 773.545 168.895 773.758 168.707C773.971 168.52 774.091 168.265 774.091 168C774.091 167.735 773.971 167.48 773.758 167.293C773.545 167.105 773.256 167 772.955 167C771.749 167 770.593 167.421 769.74 168.172C768.888 168.922 768.409 169.939 768.409 171V174C768.409 174.53 768.17 175.039 767.743 175.414C767.317 175.789 766.739 176 766.136 176C765.835 176 765.546 176.105 765.333 176.293C765.12 176.48 765 176.735 765 177C765 177.265 765.12 177.52 765.333 177.707C765.546 177.895 765.835 178 766.136 178C766.739 178 767.317 178.211 767.743 178.586C768.17 178.961 768.409 179.47 768.409 180V183C768.409 184.061 768.888 185.078 769.74 185.828C770.593 186.579 771.749 187 772.955 187C773.256 187 773.545 186.895 773.758 186.707C773.971 186.52 774.091 186.265 774.091 186C774.091 185.735 773.971 185.48 773.758 185.293C773.545 185.105 773.256 185 772.955 185C772.352 185 771.774 184.789 771.347 184.414C770.921 184.039 770.682 183.53 770.682 183V180C770.678 179.431 770.536 178.868 770.266 178.351C769.995 177.834 769.603 177.373 769.114 177C769.603 176.627 769.995 176.166 770.266 175.649C770.536 175.132 770.678 174.569 770.682 174V171ZM788.864 176C788.261 176 787.683 175.789 787.257 175.414C786.83 175.039 786.591 174.53 786.591 174V171C786.591 169.939 786.112 168.922 785.26 168.172C784.407 167.421 783.251 167 782.045 167C781.744 167 781.455 167.105 781.242 167.293C781.029 167.48 780.909 167.735 780.909 168C780.909 168.265 781.029 168.52 781.242 168.707C781.455 168.895 781.744 169 782.045 169C782.648 169 783.226 169.211 783.653 169.586C784.079 169.961 784.318 170.47 784.318 171V174C784.322 174.569 784.464 175.132 784.734 175.649C785.005 176.166 785.397 176.627 785.886 177C785.397 177.373 785.005 177.834 784.734 178.351C784.464 178.868 784.322 179.431 784.318 180V183C784.318 183.53 784.079 184.039 783.653 184.414C783.226 184.789 782.648 185 782.045 185C781.744 185 781.455 185.105 781.242 185.293C781.029 185.48 780.909 185.735 780.909 186C780.909 186.265 781.029 186.52 781.242 186.707C781.455 186.895 781.744 187 782.045 187C783.251 187 784.407 186.579 785.26 185.828C786.112 185.078 786.591 184.061 786.591 183V180C786.591 179.47 786.83 178.961 787.257 178.586C787.683 178.211 788.261 178 788.864 178C789.165 178 789.454 177.895 789.667 177.707C789.88 177.52 790 177.265 790 177C790 176.735 789.88 176.48 789.667 176.293C789.454 176.105 789.165 176 788.864 176Z" fill="#68FF4A"/>
<path d="M1371.68 171C1371.68 170.47 1371.92 169.961 1372.35 169.586C1372.77 169.211 1373.35 169 1373.95 169C1374.26 169 1374.54 168.895 1374.76 168.707C1374.97 168.52 1375.09 168.265 1375.09 168C1375.09 167.735 1374.97 167.48 1374.76 167.293C1374.54 167.105 1374.26 167 1373.95 167C1372.75 167 1371.59 167.421 1370.74 168.172C1369.89 168.922 1369.41 169.939 1369.41 171V174C1369.41 174.53 1369.17 175.039 1368.74 175.414C1368.32 175.789 1367.74 176 1367.14 176C1366.83 176 1366.55 176.105 1366.33 176.293C1366.12 176.48 1366 176.735 1366 177C1366 177.265 1366.12 177.52 1366.33 177.707C1366.55 177.895 1366.83 178 1367.14 178C1367.74 178 1368.32 178.211 1368.74 178.586C1369.17 178.961 1369.41 179.47 1369.41 180V183C1369.41 184.061 1369.89 185.078 1370.74 185.828C1371.59 186.579 1372.75 187 1373.95 187C1374.26 187 1374.54 186.895 1374.76 186.707C1374.97 186.52 1375.09 186.265 1375.09 186C1375.09 185.735 1374.97 185.48 1374.76 185.293C1374.54 185.105 1374.26 185 1373.95 185C1373.35 185 1372.77 184.789 1372.35 184.414C1371.92 184.039 1371.68 183.53 1371.68 183V180C1371.68 179.431 1371.54 178.868 1371.27 178.351C1371 177.834 1370.6 177.373 1370.11 177C1370.6 176.627 1371 176.166 1371.27 175.649C1371.54 175.132 1371.68 174.569 1371.68 174V171ZM1389.86 176C1389.26 176 1388.68 175.789 1388.26 175.414C1387.83 175.039 1387.59 174.53 1387.59 174V171C1387.59 169.939 1387.11 168.922 1386.26 168.172C1385.41 167.421 1384.25 167 1383.05 167C1382.74 167 1382.46 167.105 1382.24 167.293C1382.03 167.48 1381.91 167.735 1381.91 168C1381.91 168.265 1382.03 168.52 1382.24 168.707C1382.46 168.895 1382.74 169 1383.05 169C1383.65 169 1384.23 169.211 1384.65 169.586C1385.08 169.961 1385.32 170.47 1385.32 171V174C1385.32 174.569 1385.46 175.132 1385.73 175.649C1386 176.166 1386.4 176.627 1386.89 177C1386.4 177.373 1386 177.834 1385.73 178.351C1385.46 178.868 1385.32 179.431 1385.32 180V183C1385.32 183.53 1385.08 184.039 1384.65 184.414C1384.23 184.789 1383.65 185 1383.05 185C1382.74 185 1382.46 185.105 1382.24 185.293C1382.03 185.48 1381.91 185.735 1381.91 186C1381.91 186.265 1382.03 186.52 1382.24 186.707C1382.46 186.895 1382.74 187 1383.05 187C1384.25 187 1385.41 186.579 1386.26 185.828C1387.11 185.078 1387.59 184.061 1387.59 183V180C1387.59 179.47 1387.83 178.961 1388.26 178.586C1388.68 178.211 1389.26 178 1389.86 178C1390.17 178 1390.45 177.895 1390.67 177.707C1390.88 177.52 1391 177.265 1391 177C1391 176.735 1390.88 176.48 1390.67 176.293C1390.45 176.105 1390.17 176 1389.86 176Z" fill="#68FF4A"/>
<path d="M468.682 469C468.682 468.47 468.921 467.961 469.347 467.586C469.774 467.211 470.352 467 470.955 467C471.256 467 471.545 466.895 471.758 466.707C471.971 466.52 472.091 466.265 472.091 466C472.091 465.735 471.971 465.48 471.758 465.293C471.545 465.105 471.256 465 470.955 465C469.749 465 468.593 465.421 467.74 466.172C466.888 466.922 466.409 467.939 466.409 469V472C466.409 472.53 466.17 473.039 465.743 473.414C465.317 473.789 464.739 474 464.136 474C463.835 474 463.546 474.105 463.333 474.293C463.12 474.48 463 474.735 463 475C463 475.265 463.12 475.52 463.333 475.707C463.546 475.895 463.835 476 464.136 476C464.739 476 465.317 476.211 465.743 476.586C466.17 476.961 466.409 477.47 466.409 478V481C466.409 482.061 466.888 483.078 467.74 483.828C468.593 484.579 469.749 485 470.955 485C471.256 485 471.545 484.895 471.758 484.707C471.971 484.52 472.091 484.265 472.091 484C472.091 483.735 471.971 483.48 471.758 483.293C471.545 483.105 471.256 483 470.955 483C470.352 483 469.774 482.789 469.347 482.414C468.921 482.039 468.682 481.53 468.682 481V478C468.678 477.431 468.536 476.868 468.266 476.351C467.995 475.834 467.603 475.373 467.114 475C467.603 474.627 467.995 474.166 468.266 473.649C468.536 473.132 468.678 472.569 468.682 472V469ZM486.864 474C486.261 474 485.683 473.789 485.257 473.414C484.83 473.039 484.591 472.53 484.591 472V469C484.591 467.939 484.112 466.922 483.26 466.172C482.407 465.421 481.251 465 480.045 465C479.744 465 479.455 465.105 479.242 465.293C479.029 465.48 478.909 465.735 478.909 466C478.909 466.265 479.029 466.52 479.242 466.707C479.455 466.895 479.744 467 480.045 467C480.648 467 481.226 467.211 481.653 467.586C482.079 467.961 482.318 468.47 482.318 469V472C482.322 472.569 482.464 473.132 482.734 473.649C483.005 474.166 483.397 474.627 483.886 475C483.397 475.373 483.005 475.834 482.734 476.351C482.464 476.868 482.322 477.431 482.318 478V481C482.318 481.53 482.079 482.039 481.653 482.414C481.226 482.789 480.648 483 480.045 483C479.744 483 479.455 483.105 479.242 483.293C479.029 483.48 478.909 483.735 478.909 484C478.909 484.265 479.029 484.52 479.242 484.707C479.455 484.895 479.744 485 480.045 485C481.251 485 482.407 484.579 483.26 483.828C484.112 483.078 484.591 482.061 484.591 481V478C484.591 477.47 484.83 476.961 485.257 476.586C485.683 476.211 486.261 476 486.864 476C487.165 476 487.454 475.895 487.667 475.707C487.88 475.52 488 475.265 488 475C488 474.735 487.88 474.48 487.667 474.293C487.454 474.105 487.165 474 486.864 474Z" fill="#68FF4A"/>
<path d="M1070.68 469C1070.68 468.47 1070.92 467.961 1071.35 467.586C1071.77 467.211 1072.35 467 1072.95 467C1073.26 467 1073.54 466.895 1073.76 466.707C1073.97 466.52 1074.09 466.265 1074.09 466C1074.09 465.735 1073.97 465.48 1073.76 465.293C1073.54 465.105 1073.26 465 1072.95 465C1071.75 465 1070.59 465.421 1069.74 466.172C1068.89 466.922 1068.41 467.939 1068.41 469V472C1068.41 472.53 1068.17 473.039 1067.74 473.414C1067.32 473.789 1066.74 474 1066.14 474C1065.83 474 1065.55 474.105 1065.33 474.293C1065.12 474.48 1065 474.735 1065 475C1065 475.265 1065.12 475.52 1065.33 475.707C1065.55 475.895 1065.83 476 1066.14 476C1066.74 476 1067.32 476.211 1067.74 476.586C1068.17 476.961 1068.41 477.47 1068.41 478V481C1068.41 482.061 1068.89 483.078 1069.74 483.828C1070.59 484.579 1071.75 485 1072.95 485C1073.26 485 1073.54 484.895 1073.76 484.707C1073.97 484.52 1074.09 484.265 1074.09 484C1074.09 483.735 1073.97 483.48 1073.76 483.293C1073.54 483.105 1073.26 483 1072.95 483C1072.35 483 1071.77 482.789 1071.35 482.414C1070.92 482.039 1070.68 481.53 1070.68 481V478C1070.68 477.431 1070.54 476.868 1070.27 476.351C1070 475.834 1069.6 475.373 1069.11 475C1069.6 474.627 1070 474.166 1070.27 473.649C1070.54 473.132 1070.68 472.569 1070.68 472V469ZM1088.86 474C1088.26 474 1087.68 473.789 1087.26 473.414C1086.83 473.039 1086.59 472.53 1086.59 472V469C1086.59 467.939 1086.11 466.922 1085.26 466.172C1084.41 465.421 1083.25 465 1082.05 465C1081.74 465 1081.46 465.105 1081.24 465.293C1081.03 465.48 1080.91 465.735 1080.91 466C1080.91 466.265 1081.03 466.52 1081.24 466.707C1081.46 466.895 1081.74 467 1082.05 467C1082.65 467 1083.23 467.211 1083.65 467.586C1084.08 467.961 1084.32 468.47 1084.32 469V472C1084.32 472.569 1084.46 473.132 1084.73 473.649C1085 474.166 1085.4 474.627 1085.89 475C1085.4 475.373 1085 475.834 1084.73 476.351C1084.46 476.868 1084.32 477.431 1084.32 478V481C1084.32 481.53 1084.08 482.039 1083.65 482.414C1083.23 482.789 1082.65 483 1082.05 483C1081.74 483 1081.46 483.105 1081.24 483.293C1081.03 483.48 1080.91 483.735 1080.91 484C1080.91 484.265 1081.03 484.52 1081.24 484.707C1081.46 484.895 1081.74 485 1082.05 485C1083.25 485 1084.41 484.579 1085.26 483.828C1086.11 483.078 1086.59 482.061 1086.59 481V478C1086.59 477.47 1086.83 476.961 1087.26 476.586C1087.68 476.211 1088.26 476 1088.86 476C1089.17 476 1089.45 475.895 1089.67 475.707C1089.88 475.52 1090 475.265 1090 475C1090 474.735 1089.88 474.48 1089.67 474.293C1089.45 474.105 1089.17 474 1088.86 474Z" fill="#68FF4A"/>
<path d="M1672.68 469C1672.68 468.47 1672.92 467.961 1673.35 467.586C1673.77 467.211 1674.35 467 1674.95 467C1675.26 467 1675.54 466.895 1675.76 466.707C1675.97 466.52 1676.09 466.265 1676.09 466C1676.09 465.735 1675.97 465.48 1675.76 465.293C1675.54 465.105 1675.26 465 1674.95 465C1673.75 465 1672.59 465.421 1671.74 466.172C1670.89 466.922 1670.41 467.939 1670.41 469V472C1670.41 472.53 1670.17 473.039 1669.74 473.414C1669.32 473.789 1668.74 474 1668.14 474C1667.83 474 1667.55 474.105 1667.33 474.293C1667.12 474.48 1667 474.735 1667 475C1667 475.265 1667.12 475.52 1667.33 475.707C1667.55 475.895 1667.83 476 1668.14 476C1668.74 476 1669.32 476.211 1669.74 476.586C1670.17 476.961 1670.41 477.47 1670.41 478V481C1670.41 482.061 1670.89 483.078 1671.74 483.828C1672.59 484.579 1673.75 485 1674.95 485C1675.26 485 1675.54 484.895 1675.76 484.707C1675.97 484.52 1676.09 484.265 1676.09 484C1676.09 483.735 1675.97 483.48 1675.76 483.293C1675.54 483.105 1675.26 483 1674.95 483C1674.35 483 1673.77 482.789 1673.35 482.414C1672.92 482.039 1672.68 481.53 1672.68 481V478C1672.68 477.431 1672.54 476.868 1672.27 476.351C1672 475.834 1671.6 475.373 1671.11 475C1671.6 474.627 1672 474.166 1672.27 473.649C1672.54 473.132 1672.68 472.569 1672.68 472V469ZM1690.86 474C1690.26 474 1689.68 473.789 1689.26 473.414C1688.83 473.039 1688.59 472.53 1688.59 472V469C1688.59 467.939 1688.11 466.922 1687.26 466.172C1686.41 465.421 1685.25 465 1684.05 465C1683.74 465 1683.46 465.105 1683.24 465.293C1683.03 465.48 1682.91 465.735 1682.91 466C1682.91 466.265 1683.03 466.52 1683.24 466.707C1683.46 466.895 1683.74 467 1684.05 467C1684.65 467 1685.23 467.211 1685.65 467.586C1686.08 467.961 1686.32 468.47 1686.32 469V472C1686.32 472.569 1686.46 473.132 1686.73 473.649C1687 474.166 1687.4 474.627 1687.89 475C1687.4 475.373 1687 475.834 1686.73 476.351C1686.46 476.868 1686.32 477.431 1686.32 478V481C1686.32 481.53 1686.08 482.039 1685.65 482.414C1685.23 482.789 1684.65 483 1684.05 483C1683.74 483 1683.46 483.105 1683.24 483.293C1683.03 483.48 1682.91 483.735 1682.91 484C1682.91 484.265 1683.03 484.52 1683.24 484.707C1683.46 484.895 1683.74 485 1684.05 485C1685.25 485 1686.41 484.579 1687.26 483.828C1688.11 483.078 1688.59 482.061 1688.59 481V478C1688.59 477.47 1688.83 476.961 1689.26 476.586C1689.68 476.211 1690.26 476 1690.86 476C1691.17 476 1691.45 475.895 1691.67 475.707C1691.88 475.52 1692 475.265 1692 475C1692 474.735 1691.88 474.48 1691.67 474.293C1691.45 474.105 1691.17 474 1690.86 474Z" fill="#68FF4A"/>
<path d="M21.0934 18L12 27.0934L21.0934 36.1867L23.3464 33.9337L16.5061 27.0934L23.3464 20.253L21.0934 18ZM32.9066 36.1867L42 27.0934L32.9066 18L30.6536 20.253L37.4939 27.0934L30.6536 33.9337L32.9066 36.1867Z" fill="#6C63FF"/>
<path d="M620.093 18L611 27.0934L620.093 36.1867L622.346 33.9337L615.506 27.0934L622.346 20.253L620.093 18ZM631.907 36.1867L641 27.0934L631.907 18L629.654 20.253L636.494 27.0934L629.654 33.9337L631.907 36.1867Z" fill="#6C63FF"/>
<path d="M1219.09 18L1210 27.0934L1219.09 36.1867L1221.35 33.9337L1214.51 27.0934L1221.35 20.253L1219.09 18ZM1230.91 36.1867L1240 27.0934L1230.91 18L1228.65 20.253L1235.49 27.0934L1228.65 33.9337L1230.91 36.1867Z" fill="#6C63FF"/>
<path d="M919.093 317L910 326.093L919.093 335.187L921.346 332.934L914.506 326.093L921.346 319.253L919.093 317ZM930.907 335.187L940 326.093L930.907 317L928.654 319.253L935.494 326.093L928.654 332.934L930.907 335.187Z" fill="#6C63FF"/>
<path d="M1518.09 317L1509 326.093L1518.09 335.187L1520.35 332.934L1513.51 326.093L1520.35 319.253L1518.09 317ZM1529.91 335.187L1539 326.093L1529.91 317L1527.65 319.253L1534.49 326.093L1527.65 332.934L1529.91 335.187Z" fill="#6C63FF"/>
<path d="M320.093 317L311 326.093L320.093 335.187L322.346 332.934L315.506 326.093L322.346 319.253L320.093 317ZM331.907 335.187L341 326.093L331.907 317L329.654 319.253L336.494 326.093L329.654 332.934L331.907 335.187Z" fill="#6C63FF"/>
<path d="M167.219 480.976L168.781 479.024L163.751 475L168.781 470.976L167.219 469.024L160.969 474.024C160.822 474.141 160.704 474.289 160.623 474.458C160.542 474.627 160.5 474.812 160.5 475C160.5 475.187 160.542 475.373 160.623 475.542C160.704 475.711 160.822 475.859 160.969 475.976L167.219 480.976ZM178.781 469.024L177.219 470.976L182.249 475L177.219 479.024L178.781 480.976L185.031 475.976C185.178 475.859 185.296 475.711 185.377 475.542C185.458 475.373 185.501 475.187 185.501 475C185.501 474.812 185.458 474.627 185.377 474.458C185.296 474.289 185.178 474.141 185.031 474.024L178.781 469.024Z" fill="#B39B22"/>
<path d="M176.72 464.02L171.72 486.52L169.279 485.978L174.279 463.478L176.72 464.02Z" fill="#B39B22"/>
<path d="M469.219 182.976L470.781 181.024L465.751 177L470.781 172.976L469.219 171.024L462.969 176.024C462.822 176.141 462.704 176.289 462.623 176.458C462.542 176.627 462.5 176.812 462.5 177C462.5 177.187 462.542 177.373 462.623 177.542C462.704 177.711 462.822 177.859 462.969 177.976L469.219 182.976ZM480.781 171.024L479.219 172.976L484.249 177L479.219 181.024L480.781 182.976L487.031 177.976C487.178 177.859 487.296 177.711 487.377 177.542C487.458 177.373 487.501 177.187 487.501 177C487.501 176.812 487.458 176.627 487.377 176.458C487.296 176.289 487.178 176.141 487.031 176.024L480.781 171.024Z" fill="#B39B22"/>
<path d="M478.72 166.02L473.72 188.52L471.279 187.978L476.279 165.478L478.72 166.02Z" fill="#B39B22"/>
<path d="M771.219 480.976L772.781 479.024L767.751 475L772.781 470.976L771.219 469.024L764.969 474.024C764.822 474.141 764.704 474.289 764.623 474.458C764.542 474.627 764.5 474.812 764.5 475C764.5 475.187 764.542 475.373 764.623 475.542C764.704 475.711 764.822 475.859 764.969 475.976L771.219 480.976ZM782.781 469.024L781.219 470.976L786.249 475L781.219 479.024L782.781 480.976L789.031 475.976C789.178 475.859 789.296 475.711 789.377 475.542C789.458 475.373 789.501 475.187 789.501 475C789.501 474.812 789.458 474.627 789.377 474.458C789.296 474.289 789.178 474.141 789.031 474.024L782.781 469.024Z" fill="#B39B22"/>
<path d="M780.72 464.02L775.72 486.52L773.279 485.978L778.279 463.478L780.72 464.02Z" fill="#B39B22"/>
<path d="M1071.22 182.976L1072.78 181.024L1067.75 177L1072.78 172.976L1071.22 171.024L1064.97 176.024C1064.82 176.141 1064.7 176.289 1064.62 176.458C1064.54 176.627 1064.5 176.812 1064.5 177C1064.5 177.187 1064.54 177.373 1064.62 177.542C1064.7 177.711 1064.82 177.859 1064.97 177.976L1071.22 182.976ZM1082.78 171.024L1081.22 172.976L1086.25 177L1081.22 181.024L1082.78 182.976L1089.03 177.976C1089.18 177.859 1089.3 177.711 1089.38 177.542C1089.46 177.373 1089.5 177.187 1089.5 177C1089.5 176.812 1089.46 176.627 1089.38 176.458C1089.3 176.289 1089.18 176.141 1089.03 176.024L1082.78 171.024Z" fill="#B39B22"/>
<path d="M1080.72 166.02L1075.72 188.52L1073.28 187.978L1078.28 165.478L1080.72 166.02Z" fill="#B39B22"/>
<path d="M1673.22 182.976L1674.78 181.024L1669.75 177L1674.78 172.976L1673.22 171.024L1666.97 176.024C1666.82 176.141 1666.7 176.289 1666.62 176.458C1666.54 176.627 1666.5 176.812 1666.5 177C1666.5 177.187 1666.54 177.373 1666.62 177.542C1666.7 177.711 1666.82 177.859 1666.97 177.976L1673.22 182.976ZM1684.78 171.024L1683.22 172.976L1688.25 177L1683.22 181.024L1684.78 182.976L1691.03 177.976C1691.18 177.859 1691.3 177.711 1691.38 177.542C1691.46 177.373 1691.5 177.187 1691.5 177C1691.5 176.812 1691.46 176.627 1691.38 176.458C1691.3 176.289 1691.18 176.141 1691.03 176.024L1684.78 171.024Z" fill="#B39B22"/>
<path d="M1682.72 166.02L1677.72 188.52L1675.28 187.978L1680.28 165.478L1682.72 166.02Z" fill="#B39B22"/>
<path d="M1368.22 480.976L1369.78 479.024L1364.75 475L1369.78 470.976L1368.22 469.024L1361.97 474.024C1361.82 474.141 1361.7 474.289 1361.62 474.458C1361.54 474.627 1361.5 474.812 1361.5 475C1361.5 475.187 1361.54 475.373 1361.62 475.542C1361.7 475.711 1361.82 475.859 1361.97 475.976L1368.22 480.976ZM1379.78 469.024L1378.22 470.976L1383.25 475L1378.22 479.024L1379.78 480.976L1386.03 475.976C1386.18 475.859 1386.3 475.711 1386.38 475.542C1386.46 475.373 1386.5 475.187 1386.5 475C1386.5 474.812 1386.46 474.627 1386.38 474.458C1386.3 474.289 1386.18 474.141 1386.03 474.024L1379.78 469.024Z" fill="#B39B22"/>
<path d="M1377.72 464.02L1372.72 486.52L1370.28 485.978L1375.28 463.478L1377.72 464.02Z" fill="#B39B22"/>
<path d="M1371.68 711C1371.68 710.47 1371.92 709.961 1372.35 709.586C1372.77 709.211 1373.35 709 1373.95 709C1374.26 709 1374.54 708.895 1374.76 708.707C1374.97 708.52 1375.09 708.265 1375.09 708C1375.09 707.735 1374.97 707.48 1374.76 707.293C1374.54 707.105 1374.26 707 1373.95 707C1372.75 707 1371.59 707.421 1370.74 708.172C1369.89 708.922 1369.41 709.939 1369.41 711V714C1369.41 714.53 1369.17 715.039 1368.74 715.414C1368.32 715.789 1367.74 716 1367.14 716C1366.83 716 1366.55 716.105 1366.33 716.293C1366.12 716.48 1366 716.735 1366 717C1366 717.265 1366.12 717.52 1366.33 717.707C1366.55 717.895 1366.83 718 1367.14 718C1367.74 718 1368.32 718.211 1368.74 718.586C1369.17 718.961 1369.41 719.47 1369.41 720V723C1369.41 724.061 1369.89 725.078 1370.74 725.828C1371.59 726.579 1372.75 727 1373.95 727C1374.26 727 1374.54 726.895 1374.76 726.707C1374.97 726.52 1375.09 726.265 1375.09 726C1375.09 725.735 1374.97 725.48 1374.76 725.293C1374.54 725.105 1374.26 725 1373.95 725C1373.35 725 1372.77 724.789 1372.35 724.414C1371.92 724.039 1371.68 723.53 1371.68 723V720C1371.68 719.431 1371.54 718.868 1371.27 718.351C1371 717.834 1370.6 717.373 1370.11 717C1370.6 716.627 1371 716.166 1371.27 715.649C1371.54 715.132 1371.68 714.569 1371.68 714V711ZM1389.86 716C1389.26 716 1388.68 715.789 1388.26 715.414C1387.83 715.039 1387.59 714.53 1387.59 714V711C1387.59 709.939 1387.11 708.922 1386.26 708.172C1385.41 707.421 1384.25 707 1383.05 707C1382.74 707 1382.46 707.105 1382.24 707.293C1382.03 707.48 1381.91 707.735 1381.91 708C1381.91 708.265 1382.03 708.52 1382.24 708.707C1382.46 708.895 1382.74 709 1383.05 709C1383.65 709 1384.23 709.211 1384.65 709.586C1385.08 709.961 1385.32 710.47 1385.32 711V714C1385.32 714.569 1385.46 715.132 1385.73 715.649C1386 716.166 1386.4 716.627 1386.89 717C1386.4 717.373 1386 717.834 1385.73 718.351C1385.46 718.868 1385.32 719.431 1385.32 720V723C1385.32 723.53 1385.08 724.039 1384.65 724.414C1384.23 724.789 1383.65 725 1383.05 725C1382.74 725 1382.46 725.105 1382.24 725.293C1382.03 725.48 1381.91 725.735 1381.91 726C1381.91 726.265 1382.03 726.52 1382.24 726.707C1382.46 726.895 1382.74 727 1383.05 727C1384.25 727 1385.41 726.579 1386.26 725.828C1387.11 725.078 1387.59 724.061 1387.59 723V720C1387.59 719.47 1387.83 718.961 1388.26 718.586C1388.68 718.211 1389.26 718 1389.86 718C1390.17 718 1390.45 717.895 1390.67 717.707C1390.88 717.52 1391 717.265 1391 717C1391 716.735 1390.88 716.48 1390.67 716.293C1390.45 716.105 1390.17 716 1389.86 716Z" fill="#68FF4A"/>
<path d="M29.1875 854V857.125H33.875V875.875H29.1875V879H37V854H29.1875ZM12 854V879H19.8125V875.875H15.125V857.125H19.8125V854H12Z" fill="#FFAD7D"/>
<path d="M331.188 555V558.125H335.875V576.875H331.188V580H339V555H331.188ZM314 555V580H321.812V576.875H317.125V558.125H321.812V555H314Z" fill="#FFAD7D"/>
<path d="M930.188 555V558.125H934.875V576.875H930.188V580H938V555H930.188ZM913 555V580H920.812V576.875H916.125V558.125H920.812V555H913Z" fill="#FFAD7D"/>
<path d="M1230.19 854V857.125H1234.88V875.875H1230.19V879H1238V854H1230.19ZM1213 854V879H1220.81V875.875H1216.12V857.125H1220.81V854H1213Z" fill="#FFAD7D"/>
<path d="M1529.19 555V558.125H1533.88V576.875H1529.19V580H1537V555H1529.19ZM1512 555V580H1519.81V576.875H1515.12V558.125H1519.81V555H1512Z" fill="#FFAD7D"/>
<path d="M631.188 854V857.125H635.875V875.875H631.188V879H639V854H631.188ZM614 854V879H621.812V875.875H617.125V857.125H621.812V854H614Z" fill="#FFAD7D"/>
<path d="M166.682 711C166.682 710.47 166.921 709.961 167.347 709.586C167.774 709.211 168.352 709 168.955 709C169.256 709 169.545 708.895 169.758 708.707C169.971 708.52 170.091 708.265 170.091 708C170.091 707.735 169.971 707.48 169.758 707.293C169.545 707.105 169.256 707 168.955 707C167.749 707 166.593 707.421 165.74 708.172C164.888 708.922 164.409 709.939 164.409 711V714C164.409 714.53 164.17 715.039 163.743 715.414C163.317 715.789 162.739 716 162.136 716C161.835 716 161.546 716.105 161.333 716.293C161.12 716.48 161 716.735 161 717C161 717.265 161.12 717.52 161.333 717.707C161.546 717.895 161.835 718 162.136 718C162.739 718 163.317 718.211 163.743 718.586C164.17 718.961 164.409 719.47 164.409 720V723C164.409 724.061 164.888 725.078 165.74 725.828C166.593 726.579 167.749 727 168.955 727C169.256 727 169.545 726.895 169.758 726.707C169.971 726.52 170.091 726.265 170.091 726C170.091 725.735 169.971 725.48 169.758 725.293C169.545 725.105 169.256 725 168.955 725C168.352 725 167.774 724.789 167.347 724.414C166.921 724.039 166.682 723.53 166.682 723V720C166.678 719.431 166.536 718.868 166.266 718.351C165.995 717.834 165.603 717.373 165.114 717C165.603 716.627 165.995 716.166 166.266 715.649C166.536 715.132 166.678 714.569 166.682 714V711ZM184.864 716C184.261 716 183.683 715.789 183.257 715.414C182.83 715.039 182.591 714.53 182.591 714V711C182.591 709.939 182.112 708.922 181.26 708.172C180.407 707.421 179.251 707 178.045 707C177.744 707 177.455 707.105 177.242 707.293C177.029 707.48 176.909 707.735 176.909 708C176.909 708.265 177.029 708.52 177.242 708.707C177.455 708.895 177.744 709 178.045 709C178.648 709 179.226 709.211 179.653 709.586C180.079 709.961 180.318 710.47 180.318 711V714C180.322 714.569 180.464 715.132 180.734 715.649C181.005 716.166 181.397 716.627 181.886 717C181.397 717.373 181.005 717.834 180.734 718.351C180.464 718.868 180.322 719.431 180.318 720V723C180.318 723.53 180.079 724.039 179.653 724.414C179.226 724.789 178.648 725 178.045 725C177.744 725 177.455 725.105 177.242 725.293C177.029 725.48 176.909 725.735 176.909 726C176.909 726.265 177.029 726.52 177.242 726.707C177.455 726.895 177.744 727 178.045 727C179.251 727 180.407 726.579 181.26 725.828C182.112 725.078 182.591 724.061 182.591 723V720C182.591 719.47 182.83 718.961 183.257 718.586C183.683 718.211 184.261 718 184.864 718C185.165 718 185.454 717.895 185.667 717.707C185.88 717.52 186 717.265 186 717C186 716.735 185.88 716.48 185.667 716.293C185.454 716.105 185.165 716 184.864 716Z" fill="#68FF4A"/>
<path d="M770.682 711C770.682 710.47 770.921 709.961 771.347 709.586C771.774 709.211 772.352 709 772.955 709C773.256 709 773.545 708.895 773.758 708.707C773.971 708.52 774.091 708.265 774.091 708C774.091 707.735 773.971 707.48 773.758 707.293C773.545 707.105 773.256 707 772.955 707C771.749 707 770.593 707.421 769.74 708.172C768.888 708.922 768.409 709.939 768.409 711V714C768.409 714.53 768.17 715.039 767.743 715.414C767.317 715.789 766.739 716 766.136 716C765.835 716 765.546 716.105 765.333 716.293C765.12 716.48 765 716.735 765 717C765 717.265 765.12 717.52 765.333 717.707C765.546 717.895 765.835 718 766.136 718C766.739 718 767.317 718.211 767.743 718.586C768.17 718.961 768.409 719.47 768.409 720V723C768.409 724.061 768.888 725.078 769.74 725.828C770.593 726.579 771.749 727 772.955 727C773.256 727 773.545 726.895 773.758 726.707C773.971 726.52 774.091 726.265 774.091 726C774.091 725.735 773.971 725.48 773.758 725.293C773.545 725.105 773.256 725 772.955 725C772.352 725 771.774 724.789 771.347 724.414C770.921 724.039 770.682 723.53 770.682 723V720C770.678 719.431 770.536 718.868 770.266 718.351C769.995 717.834 769.603 717.373 769.114 717C769.603 716.627 769.995 716.166 770.266 715.649C770.536 715.132 770.678 714.569 770.682 714V711ZM788.864 716C788.261 716 787.683 715.789 787.257 715.414C786.83 715.039 786.591 714.53 786.591 714V711C786.591 709.939 786.112 708.922 785.26 708.172C784.407 707.421 783.251 707 782.045 707C781.744 707 781.455 707.105 781.242 707.293C781.029 707.48 780.909 707.735 780.909 708C780.909 708.265 781.029 708.52 781.242 708.707C781.455 708.895 781.744 709 782.045 709C782.648 709 783.226 709.211 783.653 709.586C784.079 709.961 784.318 710.47 784.318 711V714C784.322 714.569 784.464 715.132 784.734 715.649C785.005 716.166 785.397 716.627 785.886 717C785.397 717.373 785.005 717.834 784.734 718.351C784.464 718.868 784.322 719.431 784.318 720V723C784.318 723.53 784.079 724.039 783.653 724.414C783.226 724.789 782.648 725 782.045 725C781.744 725 781.455 725.105 781.242 725.293C781.029 725.48 780.909 725.735 780.909 726C780.909 726.265 781.029 726.52 781.242 726.707C781.455 726.895 781.744 727 782.045 727C783.251 727 784.407 726.579 785.26 725.828C786.112 725.078 786.591 724.061 786.591 723V720C786.591 719.47 786.83 718.961 787.257 718.586C787.683 718.211 788.261 718 788.864 718C789.165 718 789.454 717.895 789.667 717.707C789.88 717.52 790 717.265 790 717C790 716.735 789.88 716.48 789.667 716.293C789.454 716.105 789.165 716 788.864 716Z" fill="#68FF4A"/>
<path d="M468.682 1009C468.682 1008.47 468.921 1007.96 469.347 1007.59C469.774 1007.21 470.352 1007 470.955 1007C471.256 1007 471.545 1006.89 471.758 1006.71C471.971 1006.52 472.091 1006.27 472.091 1006C472.091 1005.73 471.971 1005.48 471.758 1005.29C471.545 1005.11 471.256 1005 470.955 1005C469.749 1005 468.593 1005.42 467.74 1006.17C466.888 1006.92 466.409 1007.94 466.409 1009V1012C466.409 1012.53 466.17 1013.04 465.743 1013.41C465.317 1013.79 464.739 1014 464.136 1014C463.835 1014 463.546 1014.11 463.333 1014.29C463.12 1014.48 463 1014.73 463 1015C463 1015.27 463.12 1015.52 463.333 1015.71C463.546 1015.89 463.835 1016 464.136 1016C464.739 1016 465.317 1016.21 465.743 1016.59C466.17 1016.96 466.409 1017.47 466.409 1018V1021C466.409 1022.06 466.888 1023.08 467.74 1023.83C468.593 1024.58 469.749 1025 470.955 1025C471.256 1025 471.545 1024.89 471.758 1024.71C471.971 1024.52 472.091 1024.27 472.091 1024C472.091 1023.73 471.971 1023.48 471.758 1023.29C471.545 1023.11 471.256 1023 470.955 1023C470.352 1023 469.774 1022.79 469.347 1022.41C468.921 1022.04 468.682 1021.53 468.682 1021V1018C468.678 1017.43 468.536 1016.87 468.266 1016.35C467.995 1015.83 467.603 1015.37 467.114 1015C467.603 1014.63 467.995 1014.17 468.266 1013.65C468.536 1013.13 468.678 1012.57 468.682 1012V1009ZM486.864 1014C486.261 1014 485.683 1013.79 485.257 1013.41C484.83 1013.04 484.591 1012.53 484.591 1012V1009C484.591 1007.94 484.112 1006.92 483.26 1006.17C482.407 1005.42 481.251 1005 480.045 1005C479.744 1005 479.455 1005.11 479.242 1005.29C479.029 1005.48 478.909 1005.73 478.909 1006C478.909 1006.27 479.029 1006.52 479.242 1006.71C479.455 1006.89 479.744 1007 480.045 1007C480.648 1007 481.226 1007.21 481.653 1007.59C482.079 1007.96 482.318 1008.47 482.318 1009V1012C482.322 1012.57 482.464 1013.13 482.734 1013.65C483.005 1014.17 483.397 1014.63 483.886 1015C483.397 1015.37 483.005 1015.83 482.734 1016.35C482.464 1016.87 482.322 1017.43 482.318 1018V1021C482.318 1021.53 482.079 1022.04 481.653 1022.41C481.226 1022.79 480.648 1023 480.045 1023C479.744 1023 479.455 1023.11 479.242 1023.29C479.029 1023.48 478.909 1023.73 478.909 1024C478.909 1024.27 479.029 1024.52 479.242 1024.71C479.455 1024.89 479.744 1025 480.045 1025C481.251 1025 482.407 1024.58 483.26 1023.83C484.112 1023.08 484.591 1022.06 484.591 1021V1018C484.591 1017.47 484.83 1016.96 485.257 1016.59C485.683 1016.21 486.261 1016 486.864 1016C487.165 1016 487.454 1015.89 487.667 1015.71C487.88 1015.52 488 1015.27 488 1015C488 1014.73 487.88 1014.48 487.667 1014.29C487.454 1014.11 487.165 1014 486.864 1014Z" fill="#68FF4A"/>
<path d="M1070.68 1009C1070.68 1008.47 1070.92 1007.96 1071.35 1007.59C1071.77 1007.21 1072.35 1007 1072.95 1007C1073.26 1007 1073.54 1006.89 1073.76 1006.71C1073.97 1006.52 1074.09 1006.27 1074.09 1006C1074.09 1005.73 1073.97 1005.48 1073.76 1005.29C1073.54 1005.11 1073.26 1005 1072.95 1005C1071.75 1005 1070.59 1005.42 1069.74 1006.17C1068.89 1006.92 1068.41 1007.94 1068.41 1009V1012C1068.41 1012.53 1068.17 1013.04 1067.74 1013.41C1067.32 1013.79 1066.74 1014 1066.14 1014C1065.83 1014 1065.55 1014.11 1065.33 1014.29C1065.12 1014.48 1065 1014.73 1065 1015C1065 1015.27 1065.12 1015.52 1065.33 1015.71C1065.55 1015.89 1065.83 1016 1066.14 1016C1066.74 1016 1067.32 1016.21 1067.74 1016.59C1068.17 1016.96 1068.41 1017.47 1068.41 1018V1021C1068.41 1022.06 1068.89 1023.08 1069.74 1023.83C1070.59 1024.58 1071.75 1025 1072.95 1025C1073.26 1025 1073.54 1024.89 1073.76 1024.71C1073.97 1024.52 1074.09 1024.27 1074.09 1024C1074.09 1023.73 1073.97 1023.48 1073.76 1023.29C1073.54 1023.11 1073.26 1023 1072.95 1023C1072.35 1023 1071.77 1022.79 1071.35 1022.41C1070.92 1022.04 1070.68 1021.53 1070.68 1021V1018C1070.68 1017.43 1070.54 1016.87 1070.27 1016.35C1070 1015.83 1069.6 1015.37 1069.11 1015C1069.6 1014.63 1070 1014.17 1070.27 1013.65C1070.54 1013.13 1070.68 1012.57 1070.68 1012V1009ZM1088.86 1014C1088.26 1014 1087.68 1013.79 1087.26 1013.41C1086.83 1013.04 1086.59 1012.53 1086.59 1012V1009C1086.59 1007.94 1086.11 1006.92 1085.26 1006.17C1084.41 1005.42 1083.25 1005 1082.05 1005C1081.74 1005 1081.46 1005.11 1081.24 1005.29C1081.03 1005.48 1080.91 1005.73 1080.91 1006C1080.91 1006.27 1081.03 1006.52 1081.24 1006.71C1081.46 1006.89 1081.74 1007 1082.05 1007C1082.65 1007 1083.23 1007.21 1083.65 1007.59C1084.08 1007.96 1084.32 1008.47 1084.32 1009V1012C1084.32 1012.57 1084.46 1013.13 1084.73 1013.65C1085 1014.17 1085.4 1014.63 1085.89 1015C1085.4 1015.37 1085 1015.83 1084.73 1016.35C1084.46 1016.87 1084.32 1017.43 1084.32 1018V1021C1084.32 1021.53 1084.08 1022.04 1083.65 1022.41C1083.23 1022.79 1082.65 1023 1082.05 1023C1081.74 1023 1081.46 1023.11 1081.24 1023.29C1081.03 1023.48 1080.91 1023.73 1080.91 1024C1080.91 1024.27 1081.03 1024.52 1081.24 1024.71C1081.46 1024.89 1081.74 1025 1082.05 1025C1083.25 1025 1084.41 1024.58 1085.26 1023.83C1086.11 1023.08 1086.59 1022.06 1086.59 1021V1018C1086.59 1017.47 1086.83 1016.96 1087.26 1016.59C1087.68 1016.21 1088.26 1016 1088.86 1016C1089.17 1016 1089.45 1015.89 1089.67 1015.71C1089.88 1015.52 1090 1015.27 1090 1015C1090 1014.73 1089.88 1014.48 1089.67 1014.29C1089.45 1014.11 1089.17 1014 1088.86 1014Z" fill="#68FF4A"/>
<path d="M1672.68 1009C1672.68 1008.47 1672.92 1007.96 1673.35 1007.59C1673.77 1007.21 1674.35 1007 1674.95 1007C1675.26 1007 1675.54 1006.89 1675.76 1006.71C1675.97 1006.52 1676.09 1006.27 1676.09 1006C1676.09 1005.73 1675.97 1005.48 1675.76 1005.29C1675.54 1005.11 1675.26 1005 1674.95 1005C1673.75 1005 1672.59 1005.42 1671.74 1006.17C1670.89 1006.92 1670.41 1007.94 1670.41 1009V1012C1670.41 1012.53 1670.17 1013.04 1669.74 1013.41C1669.32 1013.79 1668.74 1014 1668.14 1014C1667.83 1014 1667.55 1014.11 1667.33 1014.29C1667.12 1014.48 1667 1014.73 1667 1015C1667 1015.27 1667.12 1015.52 1667.33 1015.71C1667.55 1015.89 1667.83 1016 1668.14 1016C1668.74 1016 1669.32 1016.21 1669.74 1016.59C1670.17 1016.96 1670.41 1017.47 1670.41 1018V1021C1670.41 1022.06 1670.89 1023.08 1671.74 1023.83C1672.59 1024.58 1673.75 1025 1674.95 1025C1675.26 1025 1675.54 1024.89 1675.76 1024.71C1675.97 1024.52 1676.09 1024.27 1676.09 1024C1676.09 1023.73 1675.97 1023.48 1675.76 1023.29C1675.54 1023.11 1675.26 1023 1674.95 1023C1674.35 1023 1673.77 1022.79 1673.35 1022.41C1672.92 1022.04 1672.68 1021.53 1672.68 1021V1018C1672.68 1017.43 1672.54 1016.87 1672.27 1016.35C1672 1015.83 1671.6 1015.37 1671.11 1015C1671.6 1014.63 1672 1014.17 1672.27 1013.65C1672.54 1013.13 1672.68 1012.57 1672.68 1012V1009ZM1690.86 1014C1690.26 1014 1689.68 1013.79 1689.26 1013.41C1688.83 1013.04 1688.59 1012.53 1688.59 1012V1009C1688.59 1007.94 1688.11 1006.92 1687.26 1006.17C1686.41 1005.42 1685.25 1005 1684.05 1005C1683.74 1005 1683.46 1005.11 1683.24 1005.29C1683.03 1005.48 1682.91 1005.73 1682.91 1006C1682.91 1006.27 1683.03 1006.52 1683.24 1006.71C1683.46 1006.89 1683.74 1007 1684.05 1007C1684.65 1007 1685.23 1007.21 1685.65 1007.59C1686.08 1007.96 1686.32 1008.47 1686.32 1009V1012C1686.32 1012.57 1686.46 1013.13 1686.73 1013.65C1687 1014.17 1687.4 1014.63 1687.89 1015C1687.4 1015.37 1687 1015.83 1686.73 1016.35C1686.46 1016.87 1686.32 1017.43 1686.32 1018V1021C1686.32 1021.53 1686.08 1022.04 1685.65 1022.41C1685.23 1022.79 1684.65 1023 1684.05 1023C1683.74 1023 1683.46 1023.11 1683.24 1023.29C1683.03 1023.48 1682.91 1023.73 1682.91 1024C1682.91 1024.27 1683.03 1024.52 1683.24 1024.71C1683.46 1024.89 1683.74 1025 1684.05 1025C1685.25 1025 1686.41 1024.58 1687.26 1023.83C1688.11 1023.08 1688.59 1022.06 1688.59 1021V1018C1688.59 1017.47 1688.83 1016.96 1689.26 1016.59C1689.68 1016.21 1690.26 1016 1690.86 1016C1691.17 1016 1691.45 1015.89 1691.67 1015.71C1691.88 1015.52 1692 1015.27 1692 1015C1692 1014.73 1691.88 1014.48 1691.67 1014.29C1691.45 1014.11 1691.17 1014 1690.86 1014Z" fill="#68FF4A"/>
<path d="M21.0934 558L12 567.093L21.0934 576.187L23.3464 573.934L16.5061 567.093L23.3464 560.253L21.0934 558ZM32.9066 576.187L42 567.093L32.9066 558L30.6536 560.253L37.4939 567.093L30.6536 573.934L32.9066 576.187Z" fill="#6C63FF"/>
<path d="M620.093 558L611 567.093L620.093 576.187L622.346 573.934L615.506 567.093L622.346 560.253L620.093 558ZM631.907 576.187L641 567.093L631.907 558L629.654 560.253L636.494 567.093L629.654 573.934L631.907 576.187Z" fill="#6C63FF"/>
<path d="M1219.09 558L1210 567.093L1219.09 576.187L1221.35 573.934L1214.51 567.093L1221.35 560.253L1219.09 558ZM1230.91 576.187L1240 567.093L1230.91 558L1228.65 560.253L1235.49 567.093L1228.65 573.934L1230.91 576.187Z" fill="#6C63FF"/>
<path d="M919.093 857L910 866.093L919.093 875.187L921.346 872.934L914.506 866.093L921.346 859.253L919.093 857ZM930.907 875.187L940 866.093L930.907 857L928.654 859.253L935.494 866.093L928.654 872.934L930.907 875.187Z" fill="#6C63FF"/>
<path d="M1518.09 857L1509 866.093L1518.09 875.187L1520.35 872.934L1513.51 866.093L1520.35 859.253L1518.09 857ZM1529.91 875.187L1539 866.093L1529.91 857L1527.65 859.253L1534.49 866.093L1527.65 872.934L1529.91 875.187Z" fill="#6C63FF"/>
<path d="M320.093 857L311 866.093L320.093 875.187L322.346 872.934L315.506 866.093L322.346 859.253L320.093 857ZM331.907 875.187L341 866.093L331.907 857L329.654 859.253L336.494 866.093L329.654 872.934L331.907 875.187Z" fill="#6C63FF"/>
<path d="M167.219 1020.98L168.781 1019.02L163.751 1015L168.781 1010.98L167.219 1009.02L160.969 1014.02C160.822 1014.14 160.704 1014.29 160.623 1014.46C160.542 1014.63 160.5 1014.81 160.5 1015C160.5 1015.19 160.542 1015.37 160.623 1015.54C160.704 1015.71 160.822 1015.86 160.969 1015.98L167.219 1020.98ZM178.781 1009.02L177.219 1010.98L182.249 1015L177.219 1019.02L178.781 1020.98L185.031 1015.98C185.178 1015.86 185.296 1015.71 185.377 1015.54C185.458 1015.37 185.501 1015.19 185.501 1015C185.501 1014.81 185.458 1014.63 185.377 1014.46C185.296 1014.29 185.178 1014.14 185.031 1014.02L178.781 1009.02Z" fill="#B39B22"/>
<path d="M176.72 1004.02L171.72 1026.52L169.279 1025.98L174.279 1003.48L176.72 1004.02Z" fill="#B39B22"/>
<path d="M469.219 722.976L470.781 721.024L465.751 717L470.781 712.976L469.219 711.024L462.969 716.024C462.822 716.141 462.704 716.289 462.623 716.458C462.542 716.627 462.5 716.812 462.5 717C462.5 717.187 462.542 717.373 462.623 717.542C462.704 717.711 462.822 717.859 462.969 717.976L469.219 722.976ZM480.781 711.024L479.219 712.976L484.249 717L479.219 721.024L480.781 722.976L487.031 717.976C487.178 717.859 487.296 717.711 487.377 717.542C487.458 717.373 487.501 717.187 487.501 717C487.501 716.812 487.458 716.627 487.377 716.458C487.296 716.289 487.178 716.141 487.031 716.024L480.781 711.024Z" fill="#B39B22"/>
<path d="M478.72 706.02L473.72 728.52L471.279 727.978L476.279 705.478L478.72 706.02Z" fill="#B39B22"/>
<path d="M771.219 1020.98L772.781 1019.02L767.751 1015L772.781 1010.98L771.219 1009.02L764.969 1014.02C764.822 1014.14 764.704 1014.29 764.623 1014.46C764.542 1014.63 764.5 1014.81 764.5 1015C764.5 1015.19 764.542 1015.37 764.623 1015.54C764.704 1015.71 764.822 1015.86 764.969 1015.98L771.219 1020.98ZM782.781 1009.02L781.219 1010.98L786.249 1015L781.219 1019.02L782.781 1020.98L789.031 1015.98C789.178 1015.86 789.296 1015.71 789.377 1015.54C789.458 1015.37 789.501 1015.19 789.501 1015C789.501 1014.81 789.458 1014.63 789.377 1014.46C789.296 1014.29 789.178 1014.14 789.031 1014.02L782.781 1009.02Z" fill="#B39B22"/>
<path d="M780.72 1004.02L775.72 1026.52L773.279 1025.98L778.279 1003.48L780.72 1004.02Z" fill="#B39B22"/>
<path d="M1071.22 722.976L1072.78 721.024L1067.75 717L1072.78 712.976L1071.22 711.024L1064.97 716.024C1064.82 716.141 1064.7 716.289 1064.62 716.458C1064.54 716.627 1064.5 716.812 1064.5 717C1064.5 717.187 1064.54 717.373 1064.62 717.542C1064.7 717.711 1064.82 717.859 1064.97 717.976L1071.22 722.976ZM1082.78 711.024L1081.22 712.976L1086.25 717L1081.22 721.024L1082.78 722.976L1089.03 717.976C1089.18 717.859 1089.3 717.711 1089.38 717.542C1089.46 717.373 1089.5 717.187 1089.5 717C1089.5 716.812 1089.46 716.627 1089.38 716.458C1089.3 716.289 1089.18 716.141 1089.03 716.024L1082.78 711.024Z" fill="#B39B22"/>
<path d="M1080.72 706.02L1075.72 728.52L1073.28 727.978L1078.28 705.478L1080.72 706.02Z" fill="#B39B22"/>
<path d="M1673.22 722.976L1674.78 721.024L1669.75 717L1674.78 712.976L1673.22 711.024L1666.97 716.024C1666.82 716.141 1666.7 716.289 1666.62 716.458C1666.54 716.627 1666.5 716.812 1666.5 717C1666.5 717.187 1666.54 717.373 1666.62 717.542C1666.7 717.711 1666.82 717.859 1666.97 717.976L1673.22 722.976ZM1684.78 711.024L1683.22 712.976L1688.25 717L1683.22 721.024L1684.78 722.976L1691.03 717.976C1691.18 717.859 1691.3 717.711 1691.38 717.542C1691.46 717.373 1691.5 717.187 1691.5 717C1691.5 716.812 1691.46 716.627 1691.38 716.458C1691.3 716.289 1691.18 716.141 1691.03 716.024L1684.78 711.024Z" fill="#B39B22"/>
<path d="M1682.72 706.02L1677.72 728.52L1675.28 727.978L1680.28 705.478L1682.72 706.02Z" fill="#B39B22"/>
<path d="M1368.22 1020.98L1369.78 1019.02L1364.75 1015L1369.78 1010.98L1368.22 1009.02L1361.97 1014.02C1361.82 1014.14 1361.7 1014.29 1361.62 1014.46C1361.54 1014.63 1361.5 1014.81 1361.5 1015C1361.5 1015.19 1361.54 1015.37 1361.62 1015.54C1361.7 1015.71 1361.82 1015.86 1361.97 1015.98L1368.22 1020.98ZM1379.78 1009.02L1378.22 1010.98L1383.25 1015L1378.22 1019.02L1379.78 1020.98L1386.03 1015.98C1386.18 1015.86 1386.3 1015.71 1386.38 1015.54C1386.46 1015.37 1386.5 1015.19 1386.5 1015C1386.5 1014.81 1386.46 1014.63 1386.38 1014.46C1386.3 1014.29 1386.18 1014.14 1386.03 1014.02L1379.78 1009.02Z" fill="#B39B22"/>
<path d="M1377.72 1004.02L1372.72 1026.52L1370.28 1025.98L1375.28 1003.48L1377.72 1004.02Z" fill="#B39B22"/>
</svg>
